<svg width="51" height="63" viewBox="0 0 51 63" fill="none" xmlns="http://www.w3.org/2000/svg">
<path d="M25.3742 0.5C18.6445 0.5 12.1905 3.12019 7.43192 7.78417C2.67334 12.4481 0 18.7738 0 25.3697C0 42.1568 22.361 61.1199 23.3125 61.9282C23.887 62.4098 24.6182 62.6745 25.3742 62.6745C26.1302 62.6745 26.8613 62.4098 27.4358 61.9282C28.5459 61.1199 50.7483 42.1568 50.7483 25.3697C50.7483 18.7738 48.075 12.4481 43.3164 7.78417C38.5578 3.12019 32.1038 0.5 25.3742 0.5ZM25.3742 55.3688C18.6183 49.1514 6.34354 35.7528 6.34354 25.3697C6.34354 20.4228 8.34855 15.6785 11.9175 12.1806C15.4864 8.68257 20.3269 6.71743 25.3742 6.71743C30.4214 6.71743 35.2619 8.68257 38.8308 12.1806C42.3998 15.6785 44.4048 20.4228 44.4048 25.3697C44.4048 35.7528 32.13 49.1824 25.3742 55.3688ZM25.3742 12.9349C22.8649 12.9349 20.412 13.6641 18.3256 15.0305C16.2392 16.3969 14.6131 18.3389 13.6528 20.6111C12.6926 22.8833 12.4413 25.3835 12.9309 27.7956C13.4204 30.2078 14.6287 32.4234 16.403 34.1625C18.1774 35.9015 20.438 37.0858 22.899 37.5656C25.3601 38.0454 27.911 37.7992 30.2293 36.858C32.5476 35.9168 34.529 34.323 35.9231 32.2781C37.3172 30.2332 38.0612 27.8291 38.0612 25.3697C38.0612 22.0718 36.7246 18.9089 34.3453 16.5769C31.966 14.2449 28.739 12.9349 25.3742 12.9349ZM25.3742 31.5871C24.1195 31.5871 22.8931 31.2225 21.8499 30.5393C20.8067 29.8561 19.9936 28.8851 19.5135 27.749C19.0334 26.6129 18.9077 25.3628 19.1525 24.1567C19.3973 22.9507 20.0014 21.8428 20.8886 20.9733C21.7758 20.1038 22.9061 19.5116 24.1366 19.2717C25.3671 19.0318 26.6426 19.155 27.8017 19.6256C28.9609 20.0961 29.9516 20.893 30.6486 21.9155C31.3457 22.9379 31.7177 24.14 31.7177 25.3697C31.7177 27.0187 31.0494 28.6001 29.8597 29.7661C28.6701 30.9321 27.0566 31.5871 25.3742 31.5871Z" fill="black"/>
</svg>
